<mxfile host="app.diagrams.net" modified="2023-09-26T17:37:59.868Z" agent="Mozilla/5.0 (Windows NT 10.0; Win64; x64) AppleWebKit/537.36 (KHTML, like Gecko) Chrome/116.0.0.0 Safari/537.36" version="21.7.5" etag="sjO7JaVXDqqCdd2bnDPp" type="github">
  <diagram name="Page-1" id="aMsB6wNUwm2kkwNI7LZK">
    <mxGraphModel>
      <root>
        <mxCell id="0" />
        <mxCell id="1" parent="0" />
      </root>
    </mxGraphModel>
  </diagram>
</mxfile>
